<?xml version="1.0" encoding="UTF-8" standalone="no"?>
<!-- Created with Inkscape (http://www.inkscape.org/) -->

<svg
   xmlns:dc="http://purl.org/dc/elements/1.1/"
   xmlns:cc="http://creativecommons.org/ns#"
   xmlns:rdf="http://www.w3.org/1999/02/22-rdf-syntax-ns#"
   xmlns:svg="http://www.w3.org/2000/svg"
   xmlns="http://www.w3.org/2000/svg"
   xmlns:sodipodi="http://sodipodi.sourceforge.net/DTD/sodipodi-0.dtd"
   xmlns:inkscape="http://www.inkscape.org/namespaces/inkscape"
   version="1.1"
   width="22.340767"
   height="22.370262"
   id="svg3953"
   inkscape:version="0.92.3 (2405546, 2018-03-11)"
   sodipodi:docname="osm.svg">
  <sodipodi:namedview
     pagecolor="#ffffff"
     bordercolor="#666666"
     borderopacity="1"
     objecttolerance="10"
     gridtolerance="10"
     guidetolerance="10"
     inkscape:pageopacity="0"
     inkscape:pageshadow="2"
     inkscape:window-width="1337"
     inkscape:window-height="835"
     id="namedview7"
     showgrid="false"
     inkscape:zoom="21.086072"
     inkscape:cx="8.4677804"
     inkscape:cy="13.832261"
     inkscape:window-x="0"
     inkscape:window-y="0"
     inkscape:window-maximized="0"
     inkscape:current-layer="svg3953" />
  <defs
     id="defs3955" />
  <metadata
     id="metadata3958">
    <rdf:RDF>
      <cc:Work
         rdf:about="">
        <dc:format>image/svg+xml</dc:format>
        <dc:type
           rdf:resource="http://purl.org/dc/dcmitype/StillImage" />
        <dc:title></dc:title>
      </cc:Work>
    </rdf:RDF>
  </metadata>
  <path
     style="display:inline;fill:#000000;fill-opacity:1;stroke-width:0.99999994"
     d="M 15.422941,0.00280836 C 13.247101,-0.05840334 11.079073,0.88231476 9.6301667,2.6983273 8.2863421,4.382641 7.7827325,6.5990872 8.2564888,8.6984492 8.4242992,9.4420762 8.7932532,10.348521 9.189553,10.966312 l 0.2073475,0.311022 -0.8164312,0.816431 -0.7775538,0.777555 1.6846999,1.697657 0.7905126,-0.790512 0.803472,-0.803472 0.323981,0.194388 c 1.246121,0.799349 2.873211,1.210844 4.34134,1.088575 1.030377,-0.08582 1.788734,-0.30162 2.68256,-0.751635 0.750793,-0.377999 1.224413,-0.707474 1.814291,-1.295923 1.144994,-1.142228 1.8186,-2.5069478 2.047558,-4.1080738 0.06569,-0.460224 0.06614,-1.494698 0,-1.9309246 C 21.978476,4.1078723 20.884237,2.3440159 19.194075,1.2080165 18.039058,0.43169766 16.728443,0.03953526 15.422941,0.00280836 Z"
     id="path3832"
     inkscape:connector-curvature="0" />
  <path
     style="display:inline;fill:#75570f;fill-opacity:1;stroke-width:0.99999994"
     d="m 6.7272997,12.638054 c -0.4193396,0.01687 -0.6547953,0.271103 -3.5897055,3.213887 -3.32121104,3.330121 -3.13447378,3.116434 -3.13613255,3.719298 -0.001638054,0.539592 0.06200107,0.647442 1.10153425,1.6847 0.873717,0.871809 1.0463713,1.006141 1.3736779,1.088574 0.2375124,0.05983 0.628852,0.01136 0.8812271,-0.103673 0.1970385,-0.08981 0.5895018,-0.463088 3.1620512,-3.03246 3.3405393,-3.336414 3.202588,-3.165 3.2009294,-3.771134 C 9.7201349,15.156717 9.705239,15.080289 9.5912888,14.854081 L 9.4746561,14.620814 9.4616926,14.594895 7.7640369,12.910192 7.5048519,12.767641 C 7.278644,12.653698 7.215171,12.638885 6.934646,12.638055 c -0.075856,-1.97e-4 -0.1474418,-0.0024 -0.2073473,0 z"
     id="path3835"
     inkscape:connector-curvature="0" />
  <path
     style="display:inline;fill:#c0c0c0;fill-opacity:1;stroke-width:0.99999994"
     d="m 16.287061,13.004756 c 1.856482,-0.339827 3.477717,-1.575864 4.29034,-3.2709718 1.295595,-2.702572 0.424239,-5.8787351 -2.073446,-7.5578319 -0.59583,-0.4005539 -1.427858,-0.7382155 -2.208729,-0.8963594 -0.54097,-0.1095626 -1.685633,-0.098357 -2.249862,0.02202 -0.842234,0.1796875 -1.615504,0.5147778 -2.285598,0.9904415 -0.414106,0.2939525 -1.096922,0.9764911 -1.386139,1.3855712 -1.60266,2.2668693 -1.4576621,5.2797216 0.354744,7.3710834 0.929049,1.07204 2.213953,1.775754 3.635761,1.991217 0.47218,0.07155 1.436205,0.05393 1.922929,-0.03516 z"
     id="path3833"
     inkscape:connector-curvature="0" />
  <path
     style="display:inline;fill:#c6e0ad;fill-opacity:1;stroke-width:0.99999994"
     d="m 14.643055,12.197543 c -0.640522,-0.101418 -1.183552,-0.264058 -1.62373,-0.486314 L 12.770284,11.585486 V 10.430518 9.2755552 h -0.439 c -0.381758,0 -0.904688,0.07495 -1.282334,0.183805 -0.0501,0.01442 -0.07083,0.07247 -0.07969,0.222986 l -0.01197,0.203471 -0.190516,-0.362112 c -0.417757,-0.794043 -0.566566,-1.419138 -0.566557,-2.379919 2e-6,-0.742819 0.05276,-1.0848271 0.259358,-1.6810425 0.109657,-0.3164829 0.379901,-0.8769933 0.498102,-1.0331094 0.05137,-0.067854 0.05697,-0.052961 0.05811,0.1545776 l 0.0012,0.2296583 1.304962,-0.010492 1.304964,-0.010492 0.01158,-0.328733 0.01158,-0.3287289 H 13.210167 12.770246 V 3.4190012 2.702582 l 0.155863,-0.079517 c 0.25702,-0.1311225 0.734322,-0.3116768 1.004724,-0.3800682 0.139673,-0.035331 0.283013,-0.072724 0.318528,-0.083105 0.05584,-0.016339 0.06012,0.00419 0.03159,0.1515214 -0.05498,0.2843232 -0.04047,1.0646055 0.02492,1.3421486 0.129514,0.5494545 0.451566,0.9561337 0.889091,1.1227252 0.261232,0.099469 0.753824,0.1183083 1.041864,0.039852 0.274645,-0.074806 0.579313,-0.2953293 0.734351,-0.5315315 0.2293,-0.3493392 0.31014,-0.6544306 0.332333,-1.2542374 l 0.01952,-0.5272849 0.322102,0.1675742 c 0.371011,0.1930239 0.8221,0.5187878 1.15182,0.8318164 0.221804,0.210578 0.229115,0.2241468 0.229115,0.4252367 v 0.207716 h -0.438302 -0.438307 v 0.3386912 0.3386939 h 0.808904 0.808908 l 0.08712,0.179306 0.08711,0.17931 -0.44775,-8.349e-4 c -0.308427,-8.348e-4 -0.587238,0.026954 -0.896019,0.088766 l -0.44827,0.089707 v 0.3296202 c 0,0.1812924 0.007,0.3296208 0.01554,0.3296208 0.0086,0 0.189827,-0.035872 0.402848,-0.079692 0.213025,-0.04383 0.40327,-0.079692 0.422773,-0.079692 0.0199,0 0.03546,0.5230385 0.03546,1.1940355 v 1.194037 l -0.428347,0.01132 -0.428346,0.01132 -0.01158,0.328003 -0.01158,0.328007 0.935714,0.01069 0.935718,0.01069 -0.06898,0.156298 -0.06898,0.156303 -0.496557,0.0029 c -0.459018,0.0029 -0.513599,0.01144 -0.722104,0.113846 -0.544286,0.267287 -0.836979,0.8735768 -0.845928,1.7522858 l -0.0044,0.42859 -0.266371,0.14003 c -0.232569,0.122263 -1.045982,0.417331 -1.150452,0.417331 -0.02282,0 -0.03757,-0.555438 -0.03757,-1.414537 V 9.2755322 h -0.433897 c -0.279205,0 -0.574004,0.0287 -0.826806,0.08052 -0.584252,0.119726 -0.532349,0.0768 -0.532349,0.440169 0,0.2328678 0.01364,0.3160848 0.05183,0.3160848 0.02848,0 0.212295,-0.03546 0.408426,-0.07883 0.196126,-0.04336 0.370044,-0.07921 0.38648,-0.07969 0.01642,-4.15e-4 0.02989,0.5101618 0.02989,1.1347518 v 1.135618 l -0.348654,-0.0055 c -0.191761,-0.0029 -0.393481,-0.01252 -0.448269,-0.02118 z"
     id="path3831"
     inkscape:connector-curvature="0" />
  <path
     style="display:inline;fill:#c0c0c0;fill-opacity:1;stroke-width:0.99999994"
     d="m 12.819292,8.8859562 c 0.409869,-0.181305 0.720588,-0.596546 0.846709,-1.131532 0.07571,-0.321153 0.07677,-1.045758 0.002,-1.3983938 -0.117633,-0.5551813 -0.445487,-0.9774698 -0.891889,-1.148797 -0.317179,-0.1217337 -0.852071,-0.1209541 -1.171822,0.00166 -0.446663,0.1713438 -0.761159,0.5913639 -0.886801,1.1843488 -0.07377,0.348166 -0.07402,0.99222 -4.15e-4,1.339017 0.122435,0.577783 0.488073,1.032973 0.951677,1.184768 0.324192,0.10615 0.873933,0.09129 1.150634,-0.0311 z"
     id="path3829"
     inkscape:connector-curvature="0" />
  <path
     style="display:inline;fill:#c6e0ad;fill-opacity:1;stroke-width:0.99999994"
     d="m 11.897383,8.2166392 c -0.163273,-0.137384 -0.240129,-0.41008 -0.268684,-0.953318 -0.02555,-0.485678 0.02974,-0.9878827 0.13249,-1.2044654 0.09402,-0.1981248 0.269399,-0.2984483 0.483614,-0.2766393 0.342811,0.034916 0.474551,0.3025661 0.513248,1.0427977 0.04035,0.77166 -0.08696,1.338013 -0.325139,1.446535 -0.179538,0.08181 -0.399911,0.05921 -0.535529,-0.05491 z"
     id="path3827"
     inkscape:connector-curvature="0" />
  <path
     style="display:inline;fill:#c0c0c0;fill-opacity:1;stroke-width:0.99999994"
     d="m 16.288621,8.9165292 c 0.693747,-0.214278 1.055116,-0.931787 1.013239,-2.011824 -0.03562,-0.9192255 -0.363587,-1.4861351 -0.994791,-1.7196538 -0.261972,-0.096918 -0.831296,-0.085564 -1.11203,0.022187 -0.444159,0.1704688 -0.760339,0.5750327 -0.893863,1.1437331 -0.09308,0.3964577 -0.06028,1.2956107 0.05948,1.6295367 0.186833,0.521045 0.538101,0.866527 0.989061,0.972771 0.268423,0.06325 0.665511,0.04769 0.938916,-0.03674 z"
     id="path3825"
     inkscape:connector-curvature="0" />
  <path
     style="display:inline;fill:#c6e0ad;fill-opacity:1;stroke-width:0.99999994"
     d="m 15.514948,8.2593522 c -0.230691,-0.125365 -0.336131,-0.61119 -0.302085,-1.391879 0.02592,-0.5943194 0.06786,-0.7737538 0.220904,-0.9450395 0.218453,-0.244492 0.628412,-0.1750844 0.773646,0.130977 0.159294,0.3356835 0.18644,1.3935255 0.04774,1.8605515 -0.07859,0.264632 -0.242869,0.405862 -0.469583,0.403688 -0.09146,-8.2e-4 -0.213241,-0.02712 -0.270626,-0.05829 z"
     id="path3823"
     inkscape:connector-curvature="0" />
  <path
     style="display:inline;fill:#c6e0ad;fill-opacity:1;stroke-width:0.99999994"
     d="m 11.57302,10.643962 c -0.336218,-0.35138 -0.460365,-0.526227 -0.389452,-0.548504 0.133308,-0.04189 0.644653,-0.1415568 0.65796,-0.1282498 0.0082,0.0082 0.0098,0.2251708 0.0037,0.4821528 l -0.01127,0.467238 -0.26088,-0.272637 z"
     id="path3821"
     inkscape:connector-curvature="0" />
  <path
     style="display:inline;fill:#c6e0ad;fill-opacity:1;stroke-width:0.99999994"
     d="m 18.809469,10.590479 c 0.03197,-0.277045 0.142162,-0.533522 0.262747,-0.6115598 0.131914,-0.08536 0.295566,-0.119129 0.371496,-0.07663 0.05584,0.03127 0.04039,0.06872 -0.112237,0.2725578 -0.09734,0.129978 -0.260295,0.325979 -0.362136,0.435559 l -0.185158,0.199233 0.02529,-0.219155 z"
     id="path3819"
     inkscape:connector-curvature="0" />
  <path
     style="display:inline;fill:#c6e0ad;fill-opacity:1;stroke-width:0.99999994"
     d="m 19.94646,6.7154382 0.0037,-1.5241167 0.119014,0.3586159 c 0.235319,0.7090542 0.318379,1.4703598 0.235178,2.1555858 -0.06532,0.537851 -0.06371,0.534032 -0.225143,0.534032 h -0.136774 l 0.0037,-1.524117 z"
     id="path3817"
     inkscape:connector-curvature="0" />
  <path
     style="display:inline;fill:#c6e0ad;fill-opacity:1;stroke-width:0.99999994"
     d="m 15.574984,4.1760399 c -0.119039,-0.048096 -0.246151,-0.2224384 -0.30216,-0.4144217 -0.05445,-0.1866336 -0.06929,-1.3178888 -0.02032,-1.5487994 0.02949,-0.1390432 0.04162,-0.149423 0.174791,-0.149423 0.285936,0 0.846243,0.09358 0.865825,0.1446042 0.01074,0.028034 0.03148,0.2266269 0.04602,0.4413063 0.0304,0.4484015 -0.03358,1.0746121 -0.130683,1.2792476 -0.111548,0.23507 -0.392529,0.344844 -0.633484,0.247486 z"
     id="path3815"
     inkscape:connector-curvature="0" />
  <path
     style="display:inline;fill:#c6e0ad;fill-opacity:1;stroke-width:0.99999994"
     d="m 11.211195,4.0656688 c 0.02065,-0.038359 0.172862,-0.2131784 0.338226,-0.3885032 l 0.30067,-0.3187678 0.0017,0.3884989 0.0017,0.388503 H 11.5134 c -0.311643,0 -0.336952,-0.00584 -0.302537,-0.069731 z"
     id="path3813"
     inkscape:connector-curvature="0" />
  <path
     style="display:inline;fill:#c6e0ad;fill-opacity:1;stroke-width:0.99999994"
     d="m 12.802406,19.880497 c -1.110977,-0.320998 -2.030638,-0.594801 -2.043697,-0.608458 -0.02447,-0.02558 1.123717,-4.09759 1.169241,-4.146632 0.02268,-0.02443 3.953858,1.076487 4.114927,1.152379 0.05694,0.02683 -0.0033,0.269632 -0.488675,1.963156 -0.304501,1.062897 -0.572013,1.999781 -0.594468,2.081959 -0.02248,0.08219 -0.06255,0.147583 -0.0891,0.145327 -0.02654,-0.002 -0.957254,-0.266732 -2.06823,-0.587731 z"
     id="path3811"
     inkscape:connector-curvature="0" />
  <path
     style="display:inline;fill:#a5d383;fill-opacity:1;stroke-width:0.99999994"
     d="m 15.519671,20.367068 c 0,-0.04971 1.14231,-4.039572 1.160438,-4.053181 0.04136,-0.03106 4.029477,-1.144468 4.044729,-1.129216 0.01805,0.01805 -1.114837,4.042494 -1.144587,4.066078 -0.02032,0.01609 -3.848653,1.108551 -3.970926,1.133142 -0.0493,0.0099 -0.08966,0.0024 -0.08966,-0.01683 z"
     id="path3809"
     inkscape:connector-curvature="0" />
  <path
     style="display:inline;fill:#a5d383;fill-opacity:1;stroke-width:0.99999994"
     d="m 8.8931991,18.585611 c 0.7881193,-0.792242 1.4904709,-1.515615 1.5607829,-1.607495 0.15851,-0.207149 0.378832,-0.683517 0.438748,-0.948637 0.02476,-0.109578 0.04941,-0.327982 0.05479,-0.485341 l 0.0098,-0.286116 0.170489,-0.04812 c 0.09377,-0.02646 0.177672,-0.04093 0.186455,-0.03214 0.02185,0.02185 -1.12496,4.027046 -1.163166,4.062237 -0.01679,0.01547 -0.6291094,0.198672 -1.3606858,0.407097 l -1.3301351,0.378958 1.4329546,-1.440441 z"
     id="path3807"
     inkscape:connector-curvature="0" />
  <path
     style="display:inline;fill:#c6e0ad;fill-opacity:1;stroke-width:0.99999994"
     d="m 16.61885,15.735598 c -0.0082,-0.01356 -0.03305,-0.09142 -0.05539,-0.172973 l -0.04061,-0.148278 0.145895,-0.02467 c 1.250081,-0.211499 2.588917,-0.798434 3.643466,-1.597264 0.150653,-0.114125 0.236032,-0.156996 0.247112,-0.124086 0.05113,0.151837 0.254682,0.885591 0.24764,0.892628 -0.03167,0.03167 -4.176449,1.194168 -4.188144,1.174657 z"
     id="path3805"
     inkscape:connector-curvature="0" />
  <path
     style="display:inline;fill:#a5d383;fill-opacity:1;stroke-width:0.99999994"
     d="m 2.5633276,14.52548 c -0.048213,-0.0391 -1.1000911,-3.606526 -1.1794596,-4.000109 -0.015883,-0.0788 0.1368618,-0.04117 2.026064,0.498829 1.9767442,0.565046 2.0441738,0.587516 2.0716721,0.690321 0.024512,0.09169 0.0085,0.120143 -0.1168735,0.207485 -0.079912,0.05567 -0.7189736,0.675436 -1.4201404,1.377254 -0.7011625,0.701817 -1.2849704,1.276029 -1.297345,1.276029 -0.012358,0 -0.050141,-0.02244 -0.083917,-0.04981 z"
     id="path3803"
     inkscape:connector-curvature="0" />
  <path
     style="display:inline;fill:#c6e0ad;fill-opacity:1;stroke-width:0.99999994"
     d="M 3.3267441,10.442284 C 2.2200138,10.124133 1.3112631,9.8612492 1.3072987,9.8580982 1.2934473,9.8471052 2.4802765,5.725851 2.5041754,5.7019526 c 0.020817,-0.020816 4.1228792,1.1284806 4.1654602,1.1670426 0.00866,0.0078 -0.2505509,0.94704 -0.5760116,2.087116 C 5.5562785,10.838408 5.4943852,11.0286 5.420424,11.024859 5.375629,11.022759 4.4334703,10.760437 3.3267441,10.442284 Z"
     id="path3801"
     inkscape:connector-curvature="0" />
  <path
     style="display:inline;fill:#a5d383;fill-opacity:1;stroke-width:0.99999994"
     d="m 6.0846995,10.943923 c 0.011323,-0.02995 0.1974448,-0.673017 0.4135632,-1.4290968 l 0.3929446,-1.374694 0.051221,0.298847 c 0.088753,0.517787 0.2461343,1.107989 0.4327059,1.6226888 0.099175,0.273586 0.174703,0.502341 0.1678437,0.50835 -0.00686,0.006 -0.3083217,0.09465 -0.6699279,0.196975 -0.3616059,0.102334 -0.691554,0.196247 -0.7332187,0.208696 -0.053167,0.01589 -0.069607,0.0064 -0.055134,-0.03177 z"
     id="path3799"
     inkscape:connector-curvature="0" />
  <path
     style="display:inline;fill:#a5d383;fill-opacity:1;stroke-width:0.99999994"
     d="M 4.5619718,5.7002021 C 3.4552456,5.3818366 2.540171,5.1064915 2.5284683,5.0883237 2.4904407,5.0292877 1.3668033,1.0616332 1.3834077,1.0450288 1.4067551,1.0216815 5.3995193,2.1675093 5.4376299,2.2084853 5.4803744,2.2544416 6.6296878,6.2884434 6.5985316,6.2831684 6.5851388,6.2811154 5.6687025,6.0185678 4.5619718,5.7002021 Z"
     id="path3797"
     inkscape:connector-curvature="0" />
  <path
     style="display:inline;fill:#c6e0ad;fill-opacity:1;stroke-width:0.99999994"
     d="M 6.5618437,4.1035055 C 6.338742,3.321241 6.1223831,2.5631906 6.0810463,2.418943 L 6.005891,2.1566815 7.5850507,1.7064511 C 8.4535839,1.458824 9.1911034,1.2461601 9.2239756,1.2338603 9.2568635,1.2215438 9.148053,1.362872 8.982208,1.5478882 8.1002763,2.5317608 7.5220835,3.5860447 7.1563799,4.8771111 7.0882121,5.1177796 7.0324357,5.3531563 7.0324357,5.4001744 c 0,0.2727159 -0.1073937,-0.023223 -0.470592,-1.2966689 z"
     id="path3940"
     inkscape:connector-curvature="0" />
  <path
     style="fill:#ffffff;fill-opacity:1;stroke-width:0.99999994"
     d="m 15.25447,1.182098 c -3.294926,0 -5.9612437,2.6663181 -5.9612437,5.9612442 0,3.2949248 2.6663177,5.9612438 5.9612437,5.9612438 3.294926,0 5.974203,-2.666319 5.974203,-5.9612438 v -0.05184 C 21.197911,3.8185996 18.52752,1.182098 15.25447,1.182098 Z m 0,0.8812273 c 2.784763,0 5.053844,2.2435397 5.080018,5.0281789 v 0.05184 c 0,2.803375 -2.276643,5.0800158 -5.080018,5.0800158 -2.803374,0 -5.067057,-2.2766408 -5.067057,-5.0800158 0,-2.8033754 2.263683,-5.0800168 5.067057,-5.0800169 z"
     id="path3016"
     inkscape:connector-curvature="0" />
</svg>
