<?xml version="1.0" encoding="UTF-8" standalone="no"?>
<!-- Created with Inkscape (http://www.inkscape.org/) -->

<svg
   xmlns:dc="http://purl.org/dc/elements/1.1/"
   xmlns:cc="http://creativecommons.org/ns#"
   xmlns:rdf="http://www.w3.org/1999/02/22-rdf-syntax-ns#"
   xmlns:svg="http://www.w3.org/2000/svg"
   xmlns="http://www.w3.org/2000/svg"
   xmlns:sodipodi="http://sodipodi.sourceforge.net/DTD/sodipodi-0.dtd"
   xmlns:inkscape="http://www.inkscape.org/namespaces/inkscape"
   width="19.163599mm"
   height="15.96428mm"
   viewBox="0 0 19.163599 15.96428"
   version="1.1"
   id="svg8"
   inkscape:version="0.92.3 (2405546, 2018-03-11)"
   sodipodi:docname="swimming_place.svg">
  <defs
     id="defs2" />
  <sodipodi:namedview
     id="base"
     borderopacity="1.0"
     inkscape:pageopacity="0.0"
     inkscape:pageshadow="2"
     inkscape:zoom="2.8"
     inkscape:cx="-15.954295"
     inkscape:cy="49.331937"
     inkscape:document-units="mm"
     inkscape:current-layer="layer1"
     showgrid="false"
     fit-margin-top="0"
     fit-margin-left="0"
     fit-margin-right="0"
     fit-margin-bottom="0"
     inkscape:window-width="1920"
     inkscape:window-height="1013"
     inkscape:window-x="-9"
     inkscape:window-y="1071"
     inkscape:window-maximized="1" />
  <metadata
     id="metadata5">
    <rdf:RDF>
      <cc:Work
         rdf:about="">
        <dc:format>image/svg+xml</dc:format>
        <dc:type
           rdf:resource="http://purl.org/dc/dcmitype/StillImage" />
        <dc:title></dc:title>
      </cc:Work>
    </rdf:RDF>
  </metadata>
  <g
     inkscape:label="Layer 1"
     inkscape:groupmode="layer"
     id="layer1"
     transform="translate(-5.5751499,-6.3515873)">
    <path
       d="m 8.2620536,22.006935 c -0.899673,-0.40376 -1.4614528,-0.476227 -2.0775861,-0.267997 -0.2799281,0.09461 -0.5315403,0.143527 -0.5591386,0.108717 -0.027598,-0.03481 -0.050179,-0.553658 -0.050179,-1.152996 v -1.08971 L 5.912372,19.427228 c 0.5401516,-0.284673 1.5774377,-0.227222 2.3275603,0.128911 0.4175911,0.198258 0.8453081,0.306637 1.2101451,0.306637 0.351518,0 0.8266336,-0.115616 1.2600956,-0.306637 0.459813,-0.202633 0.905064,-0.306632 1.312758,-0.306632 0.407694,0 0.852946,0.103999 1.312763,0.306632 0.418668,0.184503 0.910294,0.306637 1.234295,0.306637 0.324001,0 0.815631,-0.122134 1.234299,-0.306637 0.935926,-0.412448 1.777262,-0.412448 2.646003,0 0.417592,0.198258 0.845309,0.306637 1.210146,0.306637 0.351517,0 0.826634,-0.115616 1.260091,-0.306637 0.822746,-0.362572 1.731534,-0.403849 2.364662,-0.107406 0.234026,0.109576 0.644297,0.265416 0.91171,0.34631 l 0.486209,0.147079 0.02782,1.18687 0.02782,1.186875 h -0.244406 c -0.134423,0 -0.540775,-0.145048 -0.903006,-0.322329 -0.913808,-0.447226 -1.688926,-0.450809 -2.677221,-0.01238 -0.959848,0.425813 -1.518089,0.425813 -2.477936,0 -0.988296,-0.438432 -1.763414,-0.434849 -2.677222,0.01238 -0.864343,0.423022 -1.513638,0.423022 -2.377977,0 -0.913812,-0.447226 -1.68893,-0.450809 -2.677224,-0.01238 -0.9386676,0.416416 -1.5567526,0.422938 -2.4417245,0.02577 z"
       id="path4535"
       inkscape:connector-curvature="0" />
    <path
       d="M 8.3614154,17.726476 C 7.834786,17.532598 7.7165819,17.389793 7.9588042,17.240061 c 0.1061345,-0.06561 1.61581,-0.94178 3.3548308,-1.947047 1.739023,-1.005271 3.199275,-1.887843 3.245002,-1.961274 0.05573,-0.08948 -0.229998,-0.725169 -0.866478,-1.927749 -0.71667,-1.354104 -0.96037,-1.9098133 -0.993448,-2.2653771 -0.05021,-0.5396904 0.140175,-1.0148168 0.505788,-1.2622361 0.127947,-0.086584 1.62236,-0.4259508 3.328497,-0.7558697 4.974698,-0.9619631 4.877947,-0.9558556 5.437305,-0.3432994 0.816578,0.894241 0.314221,2.1895125 -0.949462,2.4480765 -0.284003,0.058107 -1.369663,0.2684484 -2.41258,0.4674207 -1.042913,0.1989725 -1.933971,0.3998351 -1.980125,0.4463611 -0.04653,0.04691 0.784476,1.731817 1.865354,3.782089 1.446009,2.742888 1.922776,3.730462 1.846665,3.82518 -0.18293,0.22765 -1.337523,0.158584 -2.062881,-0.123397 -0.426328,-0.165735 -0.844056,-0.251081 -1.228922,-0.251081 -0.371548,0 -0.83547,0.09108 -1.278873,0.251081 -0.450949,0.162722 -0.906314,0.251083 -1.293982,0.251083 -0.387663,0 -0.84303,-0.08836 -1.293982,-0.251083 -0.443402,-0.159999 -0.907325,-0.251081 -1.278872,-0.251081 -0.384867,0 -0.802595,0.08535 -1.228922,0.251081 -0.7395308,0.287493 -1.6962548,0.330334 -2.3123036,0.103537 z"
       id="path4533"
       inkscape:connector-curvature="0" />
    <path
       d="m 20.844086,15.663356 c -0.750809,-0.324705 -1.320777,-1.134408 -1.410502,-2.003774 -0.100216,-0.970979 0.477174,-2.017196 1.345151,-2.437374 0.488993,-0.236721 1.437375,-0.270469 1.921083,-0.06836 0.451509,0.188654 0.998346,0.697409 1.239802,1.15347 0.293267,0.553911 0.293267,1.669473 0,2.223383 -0.241456,0.456057 -0.788293,0.964816 -1.239802,1.15347 -0.414907,0.173355 -1.433166,0.161937 -1.855732,-0.0208 z"
       id="path4529"
       inkscape:connector-curvature="0" />
  </g>
</svg>
