<?xml version="1.0" encoding="UTF-8" standalone="no"?>
<svg
   xmlns:dc="http://purl.org/dc/elements/1.1/"
   xmlns:cc="http://creativecommons.org/ns#"
   xmlns:rdf="http://www.w3.org/1999/02/22-rdf-syntax-ns#"
   xmlns:svg="http://www.w3.org/2000/svg"
   xmlns="http://www.w3.org/2000/svg"
   xmlns:sodipodi="http://sodipodi.sourceforge.net/DTD/sodipodi-0.dtd"
   xmlns:inkscape="http://www.inkscape.org/namespaces/inkscape"
   stroke-miterlimit="10"
   style="fill-rule:evenodd;stroke-miterlimit:10;shape-rendering:geometricPrecision"
   version="1.1"
   id="svg4"
   sodipodi:docname="wikipedia.svg"
   width="126.33334"
   height="80"
   viewBox="0 0 113.7 72"
   inkscape:version="0.92.3 (2405546, 2018-03-11)">
  <metadata
     id="metadata10">
    <rdf:RDF>
      <cc:Work
         rdf:about="">
        <dc:format>image/svg+xml</dc:format>
        <dc:type
           rdf:resource="http://purl.org/dc/dcmitype/StillImage" />
        <dc:title></dc:title>
      </cc:Work>
    </rdf:RDF>
  </metadata>
  <defs
     id="defs8" />
  <sodipodi:namedview
     pagecolor="#ffffff"
     bordercolor="#666666"
     borderopacity="1"
     objecttolerance="10"
     gridtolerance="10"
     guidetolerance="10"
     inkscape:pageopacity="0"
     inkscape:pageshadow="2"
     inkscape:window-width="640"
     inkscape:window-height="480"
     id="namedview6"
     showgrid="false"
     fit-margin-top="0"
     fit-margin-left="0"
     fit-margin-right="0"
     fit-margin-bottom="0"
     inkscape:zoom="1.668772"
     inkscape:cx="58.757112"
     inkscape:cy="50.936111"
     inkscape:window-x="553"
     inkscape:window-y="1316"
     inkscape:window-maximized="0"
     inkscape:current-layer="svg4" />
  <path
     d="M 113.7,1.21 C 111.5016,4.3239276 104.97592,3.6450468 103.63535,8.7179639 99.224681,17.443437 95.583854,26.545601 91.51511,35.438159 86.158082,47.470027 80.859741,59.530113 75.466094,71.544375 72.712846,73.174945 72.118299,69.25471 71.068259,67.54763 66.825506,58.675087 62.582753,49.802543 58.34,40.93 52.793333,51.016667 47.246667,61.103333 41.7,71.19 39.08257,73.705278 38.153945,69.530723 37.303924,67.735828 29.039931,48.876256 20.912958,29.954038 12.561758,11.134336 10.668616,6.7048905 6.6623066,3.1719143 1.6989014,2.9001929 -2.1937143,1.9105739 1.5788666,-1.6034688 4.27625,0.075 12.071684,0.95530629 19.888674,0.44300439 27.691406,0.01875 31.921682,-0.98405082 30.231,4.5593019 26.73,3.39 22.70714,4.1767422 21.302613,8.9877441 23.606949,12.168326 30.481299,27.692217 37.35565,43.216109 44.23,58.74 48.193333,51.253333 52.156667,43.766667 56.12,36.28 51.496,26.844874 47.298552,17.189037 42.31875,7.9375 41.208601,3.2812964 35.191679,4.2732165 33.3,1.42 35.14389,-2.0668014 41.670922,1.4373131 45.283125,0.60529297 50.140854,0.95165496 55.309388,-0.61749281 59.9575,0.35375 61.363721,5.0790129 50.003472,2.0570125 53.27125,8.61375 55.8464,14.611433 58.965251,20.368494 61.78,26.26 64.555937,20.823015 67.793924,15.599247 70.20875,9.995 72.34253,5.2570141 67.065701,2.6538418 63.35125,2.4775 63.213998,-2.6971461 71.206747,1.4646563 74.485781,0.59109375 78.395345,1.5508369 84.899632,-1.8838696 87.28,1.21 85.597888,4.5487419 78.706122,3.1001689 77.12125,7.905 72.277299,15.10558 68.614885,23.018487 64.353856,30.569167 64.050179,32.070948 65.65916,33.610529 66.126235,35.127543 69.840824,42.695029 73.555412,50.262514 77.27,57.83 83.870986,42.356846 90.655018,26.955528 97.140469,11.437031 99.433651,6.8692035 95.502391,2.1894023 90.661719,2.741875 89.324607,-2.58625 97.662957,1.2261125 100.62715,0.56728516 c 4.23648,0.31674306 8.45373,-0.74862607 12.67207,-0.49212891 L 113.52125,0.30125 Z"
     id="path2"
     inkscape:connector-curvature="0" />
</svg>
