<?xml version="1.0" encoding="UTF-8" standalone="no"?>
<!-- Created with Inkscape (http://www.inkscape.org/) -->

<svg
   xmlns:dc="http://purl.org/dc/elements/1.1/"
   xmlns:cc="http://creativecommons.org/ns#"
   xmlns:rdf="http://www.w3.org/1999/02/22-rdf-syntax-ns#"
   xmlns:svg="http://www.w3.org/2000/svg"
   xmlns="http://www.w3.org/2000/svg"
   xmlns:xlink="http://www.w3.org/1999/xlink"
   xmlns:sodipodi="http://sodipodi.sourceforge.net/DTD/sodipodi-0.dtd"
   xmlns:inkscape="http://www.inkscape.org/namespaces/inkscape"
   width="110.7902"
   height="314.42584"
   id="svg2"
   version="1.1"
   inkscape:version="0.48.4 r9939"
   sodipodi:docname="walking-icon.svg"
   inkscape:export-filename="C:\Users\Matthew Moy\Dropbox\Mapping project\prologue-mapped\images\walking-icon.png"
   inkscape:export-xdpi="29.196074"
   inkscape:export-ydpi="29.196074">
  <defs
     id="defs4">
    <linearGradient
       id="linearGradient3850">
      <stop
         style="stop-color:#404040;stop-opacity:0.65765768;"
         offset="0"
         id="stop3852" />
      <stop
         style="stop-color:#3d3d3d;stop-opacity:0;"
         offset="1"
         id="stop3854" />
    </linearGradient>
    <linearGradient
       id="linearGradient3842">
      <stop
         style="stop-color:#000000;stop-opacity:1;"
         offset="0"
         id="stop3844" />
      <stop
         style="stop-color:#000000;stop-opacity:0;"
         offset="1"
         id="stop3846" />
    </linearGradient>
    <radialGradient
       inkscape:collect="always"
       xlink:href="#linearGradient3850"
       id="radialGradient3856"
       cx="45.623341"
       cy="127.37013"
       fx="45.623341"
       fy="127.37013"
       r="45.092838"
       gradientTransform="matrix(1,0,0,0.35294117,0,82.415969)"
       gradientUnits="userSpaceOnUse" />
  </defs>
  <sodipodi:namedview
     id="base"
     pagecolor="#ffffff"
     bordercolor="#666666"
     borderopacity="1.0"
     inkscape:pageopacity="0.0"
     inkscape:pageshadow="2"
     inkscape:zoom="1.885"
     inkscape:cx="79.058349"
     inkscape:cy="154.36798"
     inkscape:document-units="px"
     inkscape:current-layer="layer1"
     showgrid="false"
     inkscape:window-width="1280"
     inkscape:window-height="748"
     inkscape:window-x="-8"
     inkscape:window-y="-8"
     inkscape:window-maximized="1"
     fit-margin-top="10"
     fit-margin-left="10"
     fit-margin-right="10"
     fit-margin-bottom="150" />
  <metadata
     id="metadata7">
    <rdf:RDF>
      <cc:Work
         rdf:about="">
        <dc:format>image/svg+xml</dc:format>
        <dc:type
           rdf:resource="http://purl.org/dc/dcmitype/StillImage" />
        <dc:title></dc:title>
      </cc:Work>
    </rdf:RDF>
  </metadata>
  <g
     inkscape:label="Layer 1"
     inkscape:groupmode="layer"
     id="layer1"
     transform="translate(-213.18303,-371.98737)">
    <path
       sodipodi:type="arc"
       style="fill:url(#radialGradient3856);fill-opacity:1;stroke:none"
       id="path3840"
       sodipodi:cx="45.623341"
       sodipodi:cy="127.37013"
       sodipodi:rx="45.092838"
       sodipodi:ry="15.915119"
       d="m 90.716179,127.37013 c 0,8.78968 -20.188751,15.91512 -45.092838,15.91512 -24.904087,0 -45.09283868,-7.12544 -45.09283868,-15.91512 0,-8.78968 20.18875168,-15.91512 45.09283868,-15.91512 24.904087,0 45.092838,7.12544 45.092838,15.91512 z"
       transform="matrix(1,0,0,1.7,223.18303,292.82828)" />
    <path
       style="fill:#3d3d3d;fill-opacity:1;stroke:#ffffff;stroke-opacity:1;stroke-width:5;stroke-miterlimit:4;stroke-dasharray:none"
       d="m 268.56353,381.98737 c -25.06756,0 -45.3805,20.36278 -45.3805,45.45577 0,37.9954 45.3805,80.98598 45.3805,80.98598 0,0 45.4097,-46.96054 45.4097,-80.98598 0,-25.09299 -20.34213,-45.45577 -45.4097,-45.45577 z"
       id="path2985"
       inkscape:connector-curvature="0"
       sodipodi:nodetypes="sscss" />
    <g
       id="g3817"
       transform="matrix(3.0402721,0,0,3.0402721,227.86063,389.50448)"
       style="fill:#f2f2f2">
      <g
         id="g3773"
         style="fill:#f2f2f2">
	<circle
   id="circle3775"
   r="2.6040001"
   cy="2.6040001"
   cx="14.922"
   style="fill:#f2f2f2"
   sodipodi:cx="14.922"
   sodipodi:cy="2.6040001"
   sodipodi:rx="2.6040001"
   sodipodi:ry="2.6040001"
   d="m 17.526,2.6040001 c 0,1.4381495 -1.165851,2.6040001 -2.604,2.6040001 -1.43815,0 -2.604,-1.1658506 -2.604,-2.6040001 C 12.318,1.1658506 13.48385,0 14.922,0 c 1.438149,0 2.604,1.1658506 2.604,2.6040001 z" />

	<path
   id="path3777"
   d="m 20.998,13.724 c -0.505,-0.231 -3.863,-1.897 -3.863,-1.897 0,0 -1.193,-2.538 -1.806,-3.927 -0.578,-1.31 -0.996,-1.65 -1.823,-1.65 -0.305,0 -0.94,0 -1.27,0 -0.667,0 -0.911,0.244 -1.319,0.472 L 7.482,9.646 C 7.178,9.822 6.986,10.079 6.868,10.445 l -0.736,4.952 c -0.105,0.789 0.31,1.123 0.781,1.221 0.383,0.079 0.96,-0.114 1.074,-0.668 0.094,-0.456 0.789,-4.507 0.789,-4.507 L 11.02,9.721 c -0.369,1.717 -0.745,3.601 -0.87,4.237 -0.213,1.095 0.333,1.927 0.762,2.574 0.393,0.594 5.467,8.593 6.137,9.464 0.67,0.87 1.279,1.301 2.213,0.781 0.781,-0.435 0.651,-1.433 0.217,-2.17 -0.434,-0.737 -5.554,-9.071 -5.554,-9.071 l 0.861,-3.71 c 0,0 0.594,0.846 0.901,1.324 0.147,0.228 0.299,0.315 0.701,0.538 0.471,0.26 2.766,1.302 3.464,1.613 0.617,0.276 1.385,0.382 1.694,-0.164 0.31,-0.545 -0.086,-1.2 -0.548,-1.413 z"
   style="fill:#f2f2f2"
   inkscape:connector-curvature="0" />

	<path
   id="path3779"
   d="m 9.67,17.09 -1.042,3.657 c 0,0 -2.164,3.132 -2.766,4.009 -0.451,0.659 -0.792,1.462 -0.018,2.047 0.868,0.657 1.562,-0.197 2.012,-0.704 0.412,-0.466 2.088,-2.808 2.562,-3.405 0.315,-0.399 0.491,-0.735 0.625,-1.069 0.089,-0.224 0.43,-1.153 0.648,-1.75 L 9.67,17.09 z"
   style="fill:#f2f2f2"
   inkscape:connector-curvature="0" />

</g>
      <g
         id="g3781"
         style="fill:#f2f2f2">
</g>
      <g
         id="g3783"
         style="fill:#f2f2f2">
</g>
      <g
         id="g3785"
         style="fill:#f2f2f2">
</g>
      <g
         id="g3787"
         style="fill:#f2f2f2">
</g>
      <g
         id="g3789"
         style="fill:#f2f2f2">
</g>
      <g
         id="g3791"
         style="fill:#f2f2f2">
</g>
      <g
         id="g3793"
         style="fill:#f2f2f2">
</g>
      <g
         id="g3795"
         style="fill:#f2f2f2">
</g>
      <g
         id="g3797"
         style="fill:#f2f2f2">
</g>
      <g
         id="g3799"
         style="fill:#f2f2f2">
</g>
      <g
         id="g3801"
         style="fill:#f2f2f2">
</g>
      <g
         id="g3803"
         style="fill:#f2f2f2">
</g>
      <g
         id="g3805"
         style="fill:#f2f2f2">
</g>
      <g
         id="g3807"
         style="fill:#f2f2f2">
</g>
      <g
         id="g3809"
         style="fill:#f2f2f2">
</g>
    </g>
  </g>
</svg>
