<?xml version="1.0" encoding="iso-8859-1"?>
<!-- Generator: Adobe Illustrator 16.0.0, SVG Export Plug-In . SVG Version: 6.00 Build 0)  -->
<!DOCTYPE svg PUBLIC "-//W3C//DTD SVG 1.1//EN" "http://www.w3.org/Graphics/SVG/1.1/DTD/svg11.dtd">
<svg version="1.1" id="Capa_1" xmlns="http://www.w3.org/2000/svg" xmlns:xlink="http://www.w3.org/1999/xlink" x="0px" y="0px"
	 width="27.041px" height="27.041px" viewBox="0 0 27.041 27.041" style="enable-background:new 0 0 27.041 27.041;"
	 xml:space="preserve">
<g>
	<circle style="fill:#333333;" cx="14.922" cy="2.604" r="2.604"/>
	<path style="fill:#333333;" d="M20.998,13.724c-0.505-0.231-3.863-1.897-3.863-1.897s-1.193-2.538-1.806-3.927
		C14.751,6.59,14.333,6.25,13.506,6.25c-0.305,0-0.94,0-1.27,0c-0.667,0-0.911,0.244-1.319,0.472L7.482,9.646
		c-0.304,0.176-0.496,0.433-0.614,0.799l-0.736,4.952c-0.105,0.789,0.31,1.123,0.781,1.221c0.383,0.079,0.96-0.114,1.074-0.668
		c0.094-0.456,0.789-4.507,0.789-4.507l2.244-1.722c-0.369,1.717-0.745,3.601-0.87,4.237c-0.213,1.095,0.333,1.927,0.762,2.574
		c0.393,0.594,5.467,8.593,6.137,9.464c0.67,0.87,1.279,1.301,2.213,0.781c0.781-0.435,0.651-1.433,0.217-2.17
		c-0.434-0.737-5.554-9.071-5.554-9.071l0.861-3.71c0,0,0.594,0.846,0.901,1.324c0.147,0.228,0.299,0.315,0.701,0.538
		c0.471,0.26,2.766,1.302,3.464,1.613c0.617,0.276,1.385,0.382,1.694-0.164C21.856,14.592,21.46,13.937,20.998,13.724z"/>
	<path style="fill:#333333;" d="M9.67,17.09l-1.042,3.657c0,0-2.164,3.132-2.766,4.009c-0.451,0.659-0.792,1.462-0.018,2.047
		c0.868,0.657,1.562-0.197,2.012-0.704c0.412-0.466,2.088-2.808,2.562-3.405c0.315-0.399,0.491-0.735,0.625-1.069
		c0.089-0.224,0.43-1.153,0.648-1.75L9.67,17.09z"/>
</g>
<g>
</g>
<g>
</g>
<g>
</g>
<g>
</g>
<g>
</g>
<g>
</g>
<g>
</g>
<g>
</g>
<g>
</g>
<g>
</g>
<g>
</g>
<g>
</g>
<g>
</g>
<g>
</g>
<g>
</g>
</svg>
